<?xml version="1.0" standalone="no"?>
<!DOCTYPE svg PUBLIC "-//W3C//DTD SVG 20010904//EN"
 "http://www.w3.org/TR/2001/REC-SVG-20010904/DTD/svg10.dtd">
<svg version="1.0" xmlns="http://www.w3.org/2000/svg"
 width="512.000000pt" height="512.000000pt" viewBox="0 0 512.000000 512.000000"
 preserveAspectRatio="xMidYMid meet">
<metadata>
Created by potrace 1.14, written by Peter Selinger 2001-2017
</metadata>
<g transform="translate(0.000000,512.000000) scale(0.100000,-0.100000)"
fill="#000000" stroke="none">
<path d="M2378 5115 c-2 -1 -39 -5 -82 -9 -44 -4 -82 -9 -85 -11 -4 -2 -34 -7
-66 -10 -117 -14 -472 -111 -499 -136 -6 -5 -16 -9 -24 -9 -7 0 -56 -20 -109
-45 -52 -25 -97 -45 -99 -45 -13 0 -230 -130 -313 -188 -156 -108 -357 -287
-468 -418 -23 -27 -51 -59 -61 -71 -10 -12 -27 -34 -38 -48 -10 -15 -33 -46
-50 -69 -128 -171 -262 -426 -337 -641 -27 -77 -74 -235 -81 -275 -2 -14 -7
-36 -10 -50 -44 -189 -65 -558 -44 -780 21 -217 83 -475 165 -685 35 -89 122
-270 159 -332 10 -17 36 -60 57 -95 177 -296 500 -616 820 -814 260 -161 614
-299 871 -338 21 -4 41 -8 45 -10 3 -2 37 -7 74 -11 37 -3 91 -10 119 -14 53
-9 471 -6 523 3 17 3 48 8 70 10 22 3 87 15 145 26 58 12 115 24 128 26 37 7
320 103 370 125 581 261 1013 666 1285 1204 195 387 277 748 271 1195 -1 118
-4 224 -7 235 -3 11 -8 45 -11 75 -45 358 -204 773 -414 1080 -56 82 -75 108
-120 165 -107 135 -313 340 -406 405 -12 8 -30 23 -41 33 -36 33 -239 164
-330 214 -75 40 -184 92 -280 133 -92 40 -366 119 -465 134 -19 3 -44 7 -55
10 -11 2 -45 7 -75 11 -30 4 -64 9 -75 12 -21 5 -452 13 -457 8z"/>
</g>
</svg>
